{"glyphs":{":":{"x_min":0,"x_max":702,"ha":702,"o":"m 637 -55 q 637 -119 596 -170 q 555 -221 476 -247 q 451 -255 422 -260 q 394 -264 364 -264 q 276 -264 207 -232 q 157 -210 121 -168 q 96 -139 75 -98 q 61 -71 54 -52 q 46 -34 44 -22 q 41 -10 41 -6 q 41 11 51 21 q 61 31 76 31 q 101 31 114 4 q 126 -24 141 -56 q 149 -73 161 -91 q 175 -109 189 -128 q 242 -183 366 -183 q 443 -183 496 -152 q 555 -117 555 -59 q 555 3 507 40 q 477 63 420 80 q 403 86 403 103 q 403 119 417 121 q 458 128 493 178 q 528 227 528 279 q 528 338 506 364 q 483 390 441 390 q 427 390 408 388 q 389 385 372 369 q 355 353 355 329 l 355 267 q 355 204 316 162 q 276 121 210 121 q 130 121 86 167 q 42 213 42 296 q 42 366 91 418 q 140 470 206 470 q 252 470 285 452 q 318 433 333 433 q 348 433 383 452 q 418 470 448 470 q 529 470 569 419 q 605 373 605 290 q 605 247 585 201 q 563 158 541 115 q 578 86 608 46 q 637 7 637 -55 z m 280 293 q 280 343 261 366 q 242 389 200 389 q 171 389 146 362 q 122 334 122 293 q 122 244 146 219 q 170 194 210 194 q 280 194 280 293 z"},"$":{"x_min":0,"x_max":519,"ha":519,"o":"m 456 158 q 448 91 393 44 q 338 -2 264 -2 q 183 -2 132 34 q 82 69 59 131 q 40 186 40 239 q 40 281 52 322 q 65 362 92 399 q 111 425 187 449 q 251 469 251 506 q 251 522 247 538 q 244 558 240 568 q 226 598 189 598 q 155 598 140 524 q 125 450 92 450 q 76 450 72 458 q 67 466 67 489 l 67 502 q 67 527 74 546 q 82 565 82 573 q 78 581 75 588 q 67 605 67 639 q 67 672 78 688 q 89 705 118 705 q 128 705 161 688 q 194 670 212 670 q 281 670 298 603 q 307 542 317 481 q 322 466 358 444 q 400 418 414 399 q 441 363 452 326 q 464 290 464 247 q 464 225 461 200 q 458 174 456 158 z m 382 250 q 382 317 350 353 q 318 389 253 389 q 188 389 152 342 q 121 301 121 241 q 121 171 156 124 q 191 78 251 78 q 316 78 347 115 q 382 156 382 250 z"},"?":{"x_min":0,"x_max":493,"ha":493,"o":"m 437 232 q 437 178 411 117 q 389 65 360 36 q 341 17 326 8 q 312 0 301 0 q 288 0 276 12 q 265 23 265 37 q 265 57 289 78 q 318 104 330 127 q 353 169 353 235 q 353 299 336 335 q 310 390 244 390 q 166 390 142 356 q 124 331 124 260 l 124 219 l 124 32 q 124 16 112 7 q 101 -2 85 -2 q 69 -2 56 8 q 44 17 44 34 l 44 608 q 44 677 83 711 q 114 738 157 738 q 228 738 261 716 q 294 693 294 635 q 294 578 238 532 q 181 490 125 449 q 128 443 147 449 q 212 471 250 471 q 336 471 382 421 q 437 361 437 232 z m 216 637 q 216 650 202 655 q 188 660 169 660 q 146 660 135 652 q 124 643 124 614 q 124 587 126 572 q 127 557 137 557 q 143 557 170 573 q 190 585 200 596 q 216 614 216 637 z"},"<":{"x_min":0,"x_max":717,"ha":717,"o":"m 659 -224 q 659 -243 633 -243 q 613 -243 584 -225 q 546 -201 482 -184 q 417 -168 337 -158 q 292 -153 247 -153 q 187 -153 124 -158 q 102 -159 68 -164 q 52 -165 45 -165 q 27 -165 27 -144 q 27 -128 57 -105 q 87 -82 134 -57 q 104 4 74 65 q 47 132 47 223 q 47 321 88 390 q 136 471 221 471 q 271 471 305 448 q 339 425 354 425 q 372 425 411 448 q 450 471 494 471 q 581 471 621 402 q 651 350 651 273 q 651 186 629 126 q 598 41 520 1 q 514 -1 506 -1 q 493 -1 482 4 q 472 8 469 20 q 467 24 467 28 q 467 32 467 34 q 467 51 496 70 q 538 101 552 135 q 571 181 571 253 q 571 331 558 354 q 538 389 467 389 q 444 389 420 364 q 397 338 397 301 l 397 249 q 397 228 395 216 q 393 205 382 197 q 372 189 359 189 q 347 189 336 196 q 325 203 321 214 q 317 226 317 249 l 317 300 q 317 338 294 364 q 272 389 249 389 q 192 389 164 352 q 129 306 129 197 q 129 110 163 49 q 201 -19 278 -48 q 380 -76 462 -102 q 543 -128 593 -155 q 659 -191 659 -224 z"},"'":{"x_min":0,"x_max":484,"ha":484,"o":"m 423 -32 q 425 -48 425 -56 q 425 -128 372 -175 q 319 -222 240 -222 q 137 -222 82 -167 q 36 -121 36 -58 q 36 -19 38 4 q 41 26 51 58 q 55 71 65 78 q 75 85 87 85 q 103 85 114 76 q 125 66 123 51 q 116 9 116 -28 q 116 -88 143 -115 q 170 -142 234 -142 q 273 -142 303 -121 q 342 -94 342 -44 q 342 -34 341 -29 q 333 48 324 112 q 316 177 308 246 q 299 314 289 339 q 269 389 224 389 q 195 389 176 372 q 157 355 157 333 q 157 313 159 300 q 161 286 169 251 q 173 233 162 222 q 152 210 134 210 q 108 210 94 246 q 86 268 79 312 q 78 318 78 331 q 78 393 129 435 q 174 472 224 472 q 280 472 322 436 q 365 399 374 344 q 378 324 389 238 q 409 91 423 -32 z"},"=":{"x_min":0,"x_max":466,"ha":466,"o":"m 409 -69 q 409 -180 364 -228 q 323 -272 238 -272 q 149 -272 102 -224 q 49 -170 49 -58 q 49 -21 56 -5 q 62 11 90 11 q 114 11 122 -4 q 131 -19 131 -55 q 131 -119 149 -149 q 174 -191 240 -191 q 285 -191 307 -167 q 329 -143 329 -87 l 329 141 q 329 160 316 155 q 296 148 270 144 q 245 140 225 140 q 135 140 90 186 q 51 226 51 291 l 51 436 q 51 453 62 462 q 74 472 91 472 q 107 472 119 462 q 131 453 131 436 l 131 326 q 131 266 156 243 q 178 223 233 223 q 286 223 308 246 q 329 270 329 309 l 329 434 q 329 471 369 471 q 384 471 396 462 q 409 452 409 436 z"},"3":{"x_min":0,"x_max":521,"ha":521,"o":"m 471 214 q 471 163 453 119 q 432 69 392 44 q 353 18 318 8 q 282 -1 230 -1 q 158 -1 113 25 q 44 65 44 159 q 44 199 52 220 q 61 240 84 240 q 108 240 116 220 q 123 201 123 165 q 123 132 147 108 q 175 80 222 80 q 300 80 347 125 q 388 164 388 216 q 388 298 327 339 q 294 361 214 382 q 153 398 153 419 q 153 437 252 458 q 350 479 350 528 q 350 559 291 572 q 200 591 180 602 q 119 634 119 709 q 119 723 130 733 q 141 743 156 743 q 177 743 184 718 q 191 693 203 684 q 215 675 246 669 q 300 658 355 648 q 429 618 429 532 q 429 486 400 456 q 372 425 372 418 q 411 376 439 329 q 471 277 471 214 z"},";":{"x_min":0,"x_max":521,"ha":521,"o":"m 460 -89 q 460 -163 408 -214 q 350 -271 257 -271 q 157 -271 99 -218 q 41 -165 41 -85 l 41 10 q 41 26 54 36 q 66 47 83 47 q 100 47 111 36 q 122 26 122 4 l 122 -81 q 122 -135 160 -164 q 195 -190 252 -190 q 316 -190 348 -156 q 379 -123 379 -47 l 379 163 q 379 181 370 185 q 360 189 326 189 l 271 189 q 254 189 236 188 q 217 188 217 173 l 217 143 q 217 113 185 113 q 172 113 163 121 q 154 129 154 144 l 154 221 q 154 252 168 260 q 183 269 213 269 l 332 269 q 362 269 372 290 q 379 305 379 344 l 379 372 l 379 494 q 379 509 378 524 q 378 539 372 539 q 369 539 365 535 l 252 419 q 242 409 228 409 q 212 409 198 420 q 185 432 185 449 q 185 464 198 478 q 219 500 282 569 q 333 625 338 630 q 361 655 384 681 q 400 696 425 696 q 460 696 460 663 z"},"J":{"x_min":0,"x_max":783,"ha":783,"o":"m 613 598 q 620 586 620 573 q 620 558 608 550 q 596 542 585 542 q 568 542 549 565 q 526 595 504 625 q 475 658 442 658 q 410 658 373 617 q 348 588 324 559 q 305 540 291 540 q 278 540 263 555 q 255 564 255 576 q 255 588 261 596 q 283 628 309 657 q 344 696 376 717 q 408 738 448 738 q 486 738 506 719 q 542 687 570 656 q 598 624 613 598 z m 730 38 q 730 -107 672 -180 q 607 -261 464 -261 l 355 -261 q 316 -261 263 -241 q 199 -217 168 -178 q 153 -158 128 -104 q 107 -58 93 -22 q 91 -17 90 -12 q 89 -7 89 -2 q 89 14 100 22 q 112 31 127 31 q 151 31 159 14 q 161 10 188 -55 q 209 -106 231 -129 q 258 -157 302 -171 q 347 -185 422 -185 q 483 -185 522 -176 q 561 -167 588 -148 q 628 -122 641 -70 q 650 -35 650 37 l 650 296 q 650 357 628 376 q 612 390 571 390 q 545 390 534 373 q 524 356 524 312 l 524 254 q 524 232 522 218 q 520 205 508 197 q 497 189 484 189 q 473 189 462 196 q 450 204 446 216 q 443 228 443 242 l 443 254 l 443 311 q 443 366 427 381 q 417 390 385 390 q 347 390 331 364 q 315 339 315 296 l 315 247 q 315 215 283 181 q 245 141 191 141 q 131 141 93 178 q 55 215 55 269 l 55 425 q 55 445 68 458 q 80 470 96 470 q 112 470 124 458 q 135 447 135 425 l 135 295 q 135 221 189 221 q 221 221 232 251 q 240 272 240 317 l 240 340 q 240 393 275 432 q 310 471 367 471 q 410 471 446 452 q 465 442 483 442 q 489 442 529 461 q 550 471 579 471 q 672 471 705 410 q 730 364 730 253 z"},"\"":{"x_min":0,"x_max":805,"ha":805,"o":"m 749 820 q 704 807 671 769 q 638 731 638 690 q 638 678 642 662 q 666 687 691 687 q 716 687 732 671 q 748 655 748 629 q 748 602 728 584 q 709 567 680 567 q 641 567 615 599 q 589 631 589 678 q 589 739 637 788 q 685 837 749 837 z m 539 817 q 494 804 461 766 q 428 728 428 687 q 428 675 432 659 q 456 684 481 684 q 506 684 522 668 q 538 652 538 626 q 538 599 518 582 q 499 564 470 564 q 431 564 405 596 q 379 628 379 675 q 379 736 427 785 q 475 834 539 834 z"},"7":{"x_min":0,"x_max":735,"ha":735,"o":"m 681 117 q 681 -43 599 -154 q 513 -271 376 -271 q 210 -271 122 -154 q 44 -50 44 113 q 44 221 77 301 q 107 374 161 419 q 196 450 240 467 q 264 477 264 495 q 254 516 247 534 q 240 553 240 573 q 240 621 275 650 q 310 679 364 679 q 418 679 448 644 q 475 612 475 563 q 475 535 464 517 q 452 499 452 492 q 452 472 474 466 q 517 454 541 437 q 620 382 654 287 q 681 212 681 117 z m 414 560 q 414 582 402 598 q 387 617 362 617 q 335 617 322 602 q 308 588 308 563 q 308 498 362 498 q 386 498 400 515 q 414 532 414 560 z m 410 287 q 410 312 402 326 q 391 345 363 345 q 335 345 322 327 q 309 309 309 283 q 309 223 363 223 q 387 223 398 240 q 410 258 410 287 z m 602 118 q 602 187 586 244 q 569 300 540 339 q 523 360 498 376 q 474 392 459 392 q 448 392 448 382 q 448 361 464 337 q 480 313 480 284 q 480 237 451 202 q 417 161 359 161 q 302 161 272 198 q 243 235 243 285 q 243 301 265 343 q 276 364 276 381 q 276 393 266 393 q 250 393 220 369 q 190 345 175 323 q 144 279 134 236 q 124 194 124 117 q 124 -33 190 -112 q 256 -190 374 -190 q 470 -190 536 -102 q 602 -13 602 118 z"},")":{"x_min":0,"x_max":616,"ha":616,"o":"m 555 227 q 555 135 518 74 q 472 -2 376 -2 q 282 -2 235 53 q 196 99 196 170 l 196 329 l 196 350 q 196 396 191 420 q 186 445 169 445 l 145 445 q 98 445 68 476 q 37 508 37 551 q 37 602 70 636 q 103 670 151 670 q 188 670 218 648 q 244 629 254 604 q 260 587 262 571 q 265 555 265 536 q 265 526 264 510 q 263 493 263 488 q 263 468 269 460 q 275 451 294 451 q 314 451 351 492 q 370 513 389 535 q 400 546 408 551 q 415 556 424 556 q 433 556 445 547 q 462 533 462 516 q 462 497 441 476 l 406 441 q 441 428 468 414 q 494 401 511 382 q 540 349 549 307 q 555 280 555 227 z m 200 554 q 200 579 186 594 q 173 610 150 610 q 132 610 116 596 q 99 583 99 558 q 99 535 114 520 q 129 505 150 505 q 171 505 186 517 q 200 529 200 554 z m 474 220 q 474 280 454 315 q 428 360 370 360 q 325 360 300 320 q 275 279 275 221 q 275 157 296 121 q 321 77 375 77 q 425 77 451 121 q 474 160 474 220 z"},"&":{"x_min":0,"x_max":755,"ha":755,"o":"m 696 272 q 696 176 651 107 q 600 29 514 29 q 428 29 376 78 q 324 127 324 210 l 324 239 q 324 311 313 340 q 295 388 242 388 q 194 388 164 332 q 133 276 133 206 q 133 124 169 68 q 205 12 284 -18 q 386 -45 466 -70 q 545 -96 598 -124 q 633 -143 637 -146 q 662 -164 662 -191 q 662 -211 635 -211 q 615 -211 590 -195 q 550 -169 489 -154 q 428 -138 342 -128 q 323 -125 300 -124 q 277 -123 246 -123 q 193 -123 128 -128 q 107 -129 74 -133 q 58 -134 51 -134 q 33 -134 33 -113 q 33 -94 78 -65 q 98 -52 137 -31 q 96 47 80 83 q 53 143 53 232 q 53 327 100 398 q 147 470 217 470 q 291 470 328 429 q 346 409 370 409 q 398 433 430 450 q 467 470 518 470 q 595 470 647 408 q 696 349 696 272 z m 615 256 q 615 310 591 347 q 564 389 515 389 q 470 389 438 350 q 405 310 405 258 q 405 178 431 144 q 457 110 510 110 q 560 110 590 162 q 615 205 615 256 z"},"(":{"x_min":0,"x_max":493,"ha":493,"o":"m 432 21 q 432 -106 373 -169 q 324 -222 246 -222 q 178 -222 144 -212 q 109 -201 78 -165 q 57 -140 46 -110 q 36 -81 36 -35 q 36 13 44 32 q 53 52 77 52 q 99 52 106 11 q 109 -20 112 -51 q 121 -93 144 -114 q 173 -141 228 -141 q 284 -141 318 -101 q 349 -65 349 -14 q 349 80 254 106 q 158 132 158 152 q 158 160 246 187 q 334 214 334 285 q 334 341 310 366 q 287 392 235 392 q 192 392 172 380 q 153 369 146 342 q 144 324 142 306 q 141 287 141 283 q 141 268 142 261 q 144 239 136 224 q 129 208 110 208 q 89 208 77 225 q 62 247 62 297 q 62 368 98 413 q 144 470 240 470 q 328 470 374 421 q 416 376 416 302 q 416 250 400 220 q 381 194 363 169 q 363 155 398 114 q 432 72 432 21 z"},"C":{"x_min":0,"x_max":594,"ha":594,"o":"m 521 288 l 466 288 q 441 288 441 259 q 441 250 442 242 q 442 234 444 221 q 446 208 467 208 l 519 208 q 533 208 541 196 q 549 185 549 170 q 549 154 540 142 q 532 129 519 129 q 484 129 474 126 q 464 124 464 112 q 464 104 467 90 q 475 69 479 55 q 487 28 487 -10 q 487 -123 452 -182 q 398 -272 256 -272 q 142 -272 88 -206 q 46 -155 46 -77 l 46 38 q 46 56 58 66 q 70 76 88 76 q 104 76 115 68 q 126 59 126 42 l 126 -86 q 126 -138 166 -164 q 206 -190 271 -190 q 343 -190 377 -145 q 408 -104 408 -26 q 408 -3 398 40 q 385 94 370 109 q 364 114 333 116 q 242 122 235 123 q 198 130 177 164 q 156 198 156 241 q 156 321 207 354 q 243 377 305 377 q 320 377 339 375 q 358 373 361 373 q 363 383 370 443 q 371 455 383 540 q 388 580 328 619 q 267 658 213 658 q 188 658 167 618 q 149 580 132 543 q 122 526 117 520 q 105 507 91 507 q 88 507 78 510 q 68 513 60 522 q 52 531 52 545 q 52 551 55 562 q 76 621 90 650 q 135 739 181 739 q 299 739 375 698 q 466 649 466 590 q 466 552 456 457 q 453 425 445 366 l 517 366 q 531 366 539 353 q 547 340 547 323 q 547 308 540 298 q 534 288 521 288 z m 355 234 q 355 277 348 286 q 340 296 302 296 q 276 296 258 281 q 240 266 240 246 q 240 239 241 236 q 249 197 297 197 l 311 197 q 334 197 342 202 q 355 210 355 234 z"},"A":{"x_min":0,"x_max":504,"ha":504,"o":"m 453 223 q 453 119 400 58 q 347 -2 247 -2 q 143 -2 89 89 q 48 158 48 239 q 48 323 90 390 q 142 473 232 473 q 273 473 308 463 q 337 452 367 441 q 373 441 373 453 l 373 576 l 373 704 q 373 720 386 730 q 398 739 414 739 q 430 739 442 730 q 453 720 453 703 l 453 566 z m 373 245 q 373 392 249 392 q 192 392 160 352 q 129 312 129 252 q 129 183 159 135 q 194 80 254 80 q 317 80 345 122 q 373 163 373 245 z"},"-":{"x_min":0,"x_max":491,"ha":491,"o":"m 438 -13 q 438 -136 394 -198 q 350 -261 266 -261 q 181 -261 122 -232 q 64 -202 52 -156 q 40 -109 40 -74 q 40 -44 48 -4 q 51 17 62 28 q 73 39 86 39 q 101 39 112 26 q 122 14 120 -3 q 116 -30 116 -56 q 116 -128 152 -157 q 178 -178 227 -178 q 298 -178 326 -146 q 355 -115 355 -40 q 355 21 338 54 q 320 87 278 103 q 263 109 224 112 q 186 116 173 128 q 165 134 165 144 q 165 163 185 167 q 269 186 303 212 q 345 244 345 293 q 345 350 334 372 q 324 394 298 396 q 271 399 248 401 q 227 407 227 430 q 227 455 243 463 q 259 471 291 471 q 347 471 382 433 q 417 395 417 323 q 417 253 399 218 q 379 190 359 162 q 359 156 398 110 q 438 65 438 -13 z"},"E":{"x_min":0,"x_max":497,"ha":497,"o":"m 451 -79 q 451 -152 399 -208 q 340 -272 246 -272 q 133 -272 85 -187 q 48 -122 48 -2 q 48 22 56 34 q 64 45 90 45 q 114 45 123 13 q 132 -19 132 -78 q 132 -133 171 -163 q 205 -189 255 -189 q 303 -189 336 -156 q 370 -124 370 -67 q 370 -22 345 14 q 330 36 307 53 q 273 68 254 76 q 219 92 219 118 q 219 141 290 161 q 362 181 362 211 q 362 241 296 278 q 231 314 231 362 q 231 392 249 421 q 280 470 348 470 l 361 470 q 375 470 384 466 q 393 462 396 451 q 399 440 399 435 q 399 422 392 414 q 385 406 376 404 q 336 395 332 394 q 308 385 308 365 q 360 336 398 302 q 441 264 441 209 q 441 166 406 140 q 372 113 372 103 q 402 66 426 23 q 451 -20 451 -79 z"},">":{"x_min":0,"x_max":526,"ha":526,"o":"m 477 220 q 477 127 427 67 q 369 -2 261 -2 q 186 -2 138 38 q 63 101 63 253 q 63 346 108 404 q 160 471 257 471 q 282 471 311 463 q 340 455 371 447 q 383 447 390 452 q 397 458 397 473 l 397 602 q 397 632 389 643 q 378 658 349 658 q 300 658 300 617 q 300 573 299 566 q 294 531 264 531 q 241 531 234 552 q 227 572 227 618 q 227 658 169 658 q 139 658 129 646 q 119 634 119 608 q 119 588 123 582 q 127 575 144 564 q 151 560 151 548 q 151 537 142 528 q 134 518 119 518 q 112 518 103 521 q 70 532 57 551 q 41 573 41 619 q 41 686 80 716 q 109 738 154 738 q 210 738 233 720 q 256 702 267 702 q 276 702 291 713 q 325 738 379 738 q 429 738 455 699 q 477 666 477 614 z m 397 228 q 397 313 371 348 q 340 390 260 390 q 207 390 178 356 q 145 318 145 238 q 145 161 178 120 q 211 79 264 79 q 334 79 369 130 q 397 170 397 228 z"},"8":{"x_min":0,"x_max":777,"ha":777,"o":"m 719 38 q 719 -107 661 -180 q 596 -261 453 -261 l 344 -261 q 305 -261 252 -241 q 188 -217 157 -178 q 142 -158 117 -104 q 96 -58 82 -22 q 80 -17 79 -12 q 78 -7 78 -2 q 78 14 90 22 q 101 31 116 31 q 140 31 148 14 q 150 10 177 -55 q 198 -106 220 -129 q 247 -157 292 -171 q 336 -185 411 -185 q 472 -185 511 -176 q 550 -167 577 -148 q 617 -122 630 -70 q 639 -35 639 37 l 639 296 q 639 357 617 376 q 601 390 560 390 q 534 390 524 373 q 513 356 513 312 l 513 254 q 513 232 511 218 q 509 205 498 197 q 486 189 473 189 q 462 189 450 196 q 439 204 436 216 q 432 228 432 242 l 432 254 l 432 311 q 432 366 416 381 q 406 390 374 390 q 336 390 320 364 q 304 339 304 296 l 304 247 q 304 215 272 181 q 234 141 180 141 q 120 141 82 178 q 44 215 44 269 l 44 425 q 44 445 56 458 q 69 470 85 470 q 101 470 112 458 q 124 447 124 425 l 124 295 q 124 221 178 221 q 210 221 221 251 q 229 272 229 317 l 229 340 q 229 393 264 432 q 299 471 356 471 q 399 471 435 452 q 454 442 472 442 q 478 442 518 461 q 539 471 568 471 q 661 471 694 410 q 719 364 719 253 z"},"%":{"x_min":0,"x_max":519,"ha":519,"o":"m 462 30 q 462 -80 416 -143 q 363 -216 254 -216 q 153 -216 97 -154 q 38 -88 38 34 q 38 128 104 189 q 165 245 244 245 l 244 340 q 244 369 224 380 q 204 390 181 390 q 145 390 132 380 q 120 371 120 344 q 120 287 113 274 q 106 261 75 261 q 53 261 46 278 q 40 295 40 338 q 40 414 88 447 q 122 470 172 470 q 257 470 296 433 q 326 404 326 357 l 326 266 q 326 237 348 230 q 369 223 379 216 q 417 187 433 161 q 462 113 462 30 z m 381 34 q 381 99 346 136 q 312 172 258 172 q 191 172 156 130 q 120 87 120 26 q 120 -42 149 -83 q 184 -133 254 -133 q 322 -133 355 -79 q 381 -36 381 34 z"},"#":{"x_min":0,"x_max":451,"ha":451,"o":"m 399 163 q 399 81 348 38 q 302 -1 225 -1 q 117 -1 71 61 q 42 100 42 156 q 42 188 49 202 q 56 217 78 217 q 96 217 106 206 q 115 194 115 159 q 119 121 132 105 q 153 80 205 80 q 256 80 279 90 q 317 107 317 156 q 317 186 280 217 q 190 291 172 375 q 167 399 167 426 l 167 445 q 167 457 178 464 q 188 472 202 472 q 232 472 232 445 q 232 343 316 288 q 399 233 399 163 z"},",":{"x_min":0,"x_max":526,"ha":526,"o":"m 469 172 q 460 118 430 66 q 391 -1 344 -1 q 310 -1 310 16 q 310 22 318 35 q 346 70 374 106 q 396 150 396 209 q 396 296 377 333 q 348 389 262 389 q 186 389 154 344 q 123 298 123 206 q 123 145 147 103 q 178 69 209 35 q 214 25 214 19 q 214 0 174 0 q 130 17 108 38 q 41 104 41 238 q 41 267 44 295 q 48 323 60 351 q 87 409 120 434 q 169 472 258 472 q 335 472 387 438 q 446 400 464 333 q 476 290 476 248 q 476 233 474 216 q 473 198 469 172 z"},"B":{"x_min":0,"x_max":557,"ha":557,"o":"m 509 393 l 346 -255 q 342 -271 328 -271 q 316 -271 312 -255 q 279 -141 234 7 q 184 171 135 335 q 74 539 53 612 q 49 625 49 642 q 49 684 79 711 q 109 738 155 738 q 197 738 222 727 q 244 714 267 702 q 282 702 294 713 q 322 738 381 738 q 426 738 454 717 q 494 687 494 619 q 494 573 480 553 q 465 533 431 521 q 422 518 415 518 q 400 518 392 528 q 383 537 383 548 q 383 559 390 564 q 406 575 411 582 q 416 589 416 608 q 416 634 406 646 q 396 658 365 658 q 335 658 322 648 q 308 637 308 618 q 308 569 303 554 q 295 531 271 531 q 246 531 240 550 q 234 568 234 617 q 234 658 186 658 q 134 658 134 624 q 134 614 137 602 l 186 445 q 249 458 302 464 q 354 471 399 471 q 475 471 491 452 q 504 434 506 431 q 512 421 512 409 q 512 402 509 393 z m 414 357 q 419 373 398 382 q 376 390 341 390 q 289 390 250 375 q 211 360 218 335 l 323 -4 q 336 29 360 125 q 376 190 397 281 q 405 319 414 357 z"},"@":{"x_min":0,"x_max":537,"ha":537,"o":"m 477 -35 q 477 -162 415 -220 q 363 -269 267 -269 q 150 -269 91 -168 q 43 -85 43 45 q 43 144 54 222 q 65 299 89 362 q 102 396 105 403 q 113 421 128 444 q 134 455 140 461 q 150 471 161 471 q 168 471 178 466 q 195 457 195 436 q 195 429 194 426 q 193 423 190 416 q 168 366 153 315 q 138 264 132 216 q 123 142 123 92 q 123 39 135 -47 q 144 -105 175 -143 q 214 -190 278 -190 q 333 -190 361 -160 q 397 -122 397 -33 q 397 66 340 112 q 273 145 258 154 q 242 164 242 176 q 242 195 260 195 q 292 195 334 213 q 375 231 375 250 q 343 278 319 305 q 291 336 291 377 l 291 402 q 291 437 296 454 q 302 470 324 470 q 354 470 359 442 q 361 432 366 385 q 370 338 435 302 q 465 286 465 261 q 465 223 430 196 q 396 168 396 162 q 428 137 452 92 q 477 48 477 -35 z"},".":{"x_min":0,"x_max":926,"ha":926,"o":"m 868 223 q 868 161 826 93 q 780 18 716 0 q 708 -2 703 -2 q 687 -2 676 6 q 665 15 665 31 q 665 40 669 48 q 721 81 754 120 q 786 159 786 229 q 786 307 774 337 q 752 390 684 390 q 647 390 634 376 q 616 356 616 295 l 616 251 l 616 238 q 616 222 614 213 q 613 204 607 199 q 595 187 577 187 q 560 187 547 200 q 539 208 538 218 q 536 228 536 245 l 536 298 q 536 336 520 360 q 500 390 458 390 q 415 390 395 364 q 375 338 375 294 l 375 249 l 375 236 q 375 223 372 214 q 370 204 360 196 q 349 189 336 189 q 319 189 308 199 q 301 205 298 216 q 295 227 295 237 l 295 249 l 295 293 q 295 339 278 362 q 258 389 214 389 q 176 389 148 343 q 119 297 119 244 q 119 164 155 102 q 198 28 283 0 q 427 -29 540 -61 q 654 -93 710 -131 q 767 -169 767 -212 q 767 -226 752 -226 q 733 -226 696 -202 q 660 -178 593 -162 q 526 -145 440 -132 q 415 -128 377 -126 q 339 -124 303 -124 q 223 -124 137 -131 q 107 -133 62 -139 q 47 -140 41 -140 q 31 -140 26 -136 q 21 -132 21 -119 q 21 -103 51 -81 q 75 -63 125 -36 q 84 45 67 83 q 38 149 38 238 q 40 265 41 280 q 46 326 59 357 q 76 396 112 428 q 163 472 228 472 q 267 472 298 450 q 328 427 341 427 q 357 427 388 449 q 419 471 460 471 q 501 471 531 449 q 561 427 577 427 q 583 427 615 450 q 647 472 706 472 q 806 472 843 388 q 868 331 868 223 z"},"*":{"x_min":0,"x_max":605,"ha":605,"o":"m 554 500 q 554 455 517 434 q 480 413 480 400 q 480 396 500 375 q 520 354 520 316 q 520 277 484 254 q 448 231 448 219 q 448 211 457 198 q 477 169 477 111 q 477 65 438 32 q 398 -2 334 -2 q 267 -2 198 60 q 142 110 109 173 q 83 222 68 264 q 53 307 46 356 q 38 404 38 449 q 38 511 55 568 q 72 624 99 662 q 145 727 210 727 q 271 727 292 696 q 308 672 308 614 q 308 503 220 442 q 132 381 132 355 q 132 300 155 248 q 166 223 196 177 q 226 131 263 104 q 300 77 333 77 q 382 77 392 102 q 395 109 396 120 q 397 130 397 131 q 397 161 365 194 q 328 230 291 267 q 277 284 277 299 q 277 315 295 331 q 306 340 317 340 q 327 340 336 335 q 339 333 350 324 l 390 285 q 396 279 404 279 q 416 279 425 290 q 434 301 434 322 q 434 326 431 343 q 428 360 413 375 q 392 395 372 415 q 351 435 351 452 q 351 467 366 482 q 377 493 390 493 q 398 493 405 490 q 412 487 418 482 q 423 477 430 473 q 438 469 447 469 q 465 469 475 491 q 477 497 477 502 q 477 516 468 532 q 460 548 444 565 q 427 586 414 598 q 401 609 366 637 q 352 648 352 669 q 352 680 358 691 q 363 702 372 710 q 382 717 391 717 q 399 717 405 714 q 411 712 420 704 q 505 629 530 588 q 554 547 554 500 z m 244 602 l 244 615 q 244 633 238 643 q 229 658 205 658 q 174 658 144 608 q 114 559 114 522 q 114 494 118 481 q 122 468 135 468 q 138 468 144 470 q 178 481 209 517 q 244 558 244 602 z"},"!":{"x_min":0,"x_max":805,"ha":805,"o":"m 160 13 q 136 -12 111 -12 q 86 -12 70 4 q 54 20 54 46 q 54 73 74 90 q 93 108 122 108 q 161 108 187 76 q 213 44 213 -3 q 213 -64 165 -113 q 117 -162 53 -162 l 53 -145 q 98 -132 131 -94 q 164 -56 164 -15 q 164 -3 160 13 z m 370 16 q 346 -9 321 -9 q 296 -9 280 7 q 264 23 264 49 q 264 76 284 94 q 303 111 332 111 q 371 111 397 79 q 423 47 423 0 q 423 -61 375 -110 q 327 -159 263 -159 l 263 -142 q 308 -129 341 -91 q 374 -53 374 -12 q 374 0 370 16 z"},"/":{"x_min":0,"x_max":504,"ha":504,"o":"m 449 231 q 449 130 403 69 q 349 -2 243 -2 q 138 -2 84 88 q 43 156 43 238 q 43 333 86 397 q 136 471 228 471 q 271 471 304 462 q 333 451 362 440 q 368 440 368 452 l 368 550 q 368 613 348 638 q 321 672 245 672 q 193 672 164 660 q 136 647 124 607 q 116 577 114 572 q 105 555 85 555 q 64 555 54 569 q 44 583 44 602 q 44 611 45 615 q 60 679 112 714 q 164 749 249 749 q 449 749 449 565 z m 370 244 q 370 304 339 344 q 304 389 244 389 q 187 389 156 350 q 125 310 125 251 q 125 181 155 133 q 190 77 250 77 q 309 77 342 131 q 370 177 370 244 z"},"6":{"x_min":0,"x_max":508,"ha":508,"o":"m 445 120 q 430 62 376 30 q 322 -2 239 -2 q 161 -2 109 37 q 42 87 42 185 l 42 661 q 42 679 54 690 q 67 700 83 700 q 99 700 110 690 q 122 681 122 663 l 122 192 q 122 130 167 100 q 199 79 241 79 q 299 79 330 96 q 366 116 371 159 q 372 166 372 181 q 372 233 352 306 q 343 340 326 385 q 322 394 322 403 q 322 420 336 430 q 349 439 367 439 q 395 439 401 419 q 428 330 438 285 q 452 222 452 176 q 452 144 445 120 z"},"2":{"x_min":0,"x_max":763,"ha":763,"o":"m 717 43 q 717 15 689 8 q 661 0 574 0 l 497 0 q 499 9 502 18 q 520 45 524 53 q 535 79 544 102 q 554 126 558 150 q 562 175 563 194 q 564 212 564 253 q 564 311 536 350 q 509 389 461 389 q 437 389 414 364 q 390 338 390 301 l 390 249 l 390 233 q 390 220 388 212 q 385 203 375 196 q 365 189 353 189 q 341 189 330 196 q 320 203 315 216 q 310 229 310 249 l 310 300 q 310 338 288 364 q 265 389 242 389 q 192 389 157 343 q 122 297 122 235 q 122 162 152 115 q 167 91 196 70 q 225 51 225 33 q 225 30 222 20 q 220 10 208 4 q 197 -1 185 -1 q 178 -1 172 1 q 93 29 61 128 q 41 190 41 273 q 41 331 81 392 q 133 471 214 471 q 263 471 298 448 q 333 425 348 425 q 368 425 391 439 q 444 471 487 471 q 576 471 615 402 q 645 349 645 261 q 645 200 637 150 q 626 98 623 80 q 633 80 642 80 q 652 81 676 86 q 680 87 688 87 q 701 87 709 78 q 717 68 717 43 z"},"9":{"x_min":0,"x_max":488,"ha":488,"o":"m 422 -49 q 422 -144 368 -208 q 313 -272 229 -272 q 154 -272 99 -253 q 33 -230 33 -190 q 33 -181 44 -168 q 56 -154 71 -154 q 77 -154 85 -157 q 119 -173 133 -178 q 169 -190 214 -190 q 260 -190 297 -157 q 341 -118 341 -51 q 341 33 312 62 q 279 95 180 95 q 171 95 150 88 q 128 80 119 80 q 110 80 102 85 q 88 94 88 110 q 88 117 95 128 l 302 389 l 90 389 q 70 389 58 400 q 47 412 47 427 q 47 444 59 457 q 71 470 91 470 l 378 470 q 397 470 410 456 q 422 443 422 427 q 422 419 418 414 l 376 355 q 357 327 295 250 q 272 222 250 194 q 244 187 244 181 q 244 173 255 170 q 353 156 392 91 q 422 41 422 -49 z"}," ":{"x_min":0,"x_max":500,"ha":500,"o":""},"I":{"x_min":0,"x_max":682,"ha":682,"o":"m 631 125 q 631 74 607 40 q 578 0 522 0 l 414 0 q 395 0 389 -10 q 383 -19 383 -43 l 383 -75 l 383 -157 q 383 -190 416 -190 l 522 -190 q 539 -190 548 -202 q 557 -214 557 -230 q 557 -246 548 -258 q 538 -271 522 -271 l 379 -271 q 333 -271 318 -252 q 302 -233 302 -183 l 302 -80 q 302 -69 302 -60 q 302 -50 303 -42 q 303 -18 298 -9 q 292 0 272 0 l 165 0 q 114 0 80 31 q 46 62 46 110 l 46 338 q 46 398 80 434 q 114 470 166 470 l 249 470 q 283 470 292 480 q 302 491 302 519 l 302 631 q 302 647 298 652 q 293 658 278 658 l 179 658 q 165 658 156 670 q 148 681 148 698 q 148 714 158 726 q 167 738 185 738 l 331 738 q 376 738 381 710 q 383 699 383 652 l 383 517 q 383 487 388 478 q 392 470 418 470 l 509 470 q 561 470 596 435 q 631 400 631 357 z m 551 252 q 551 348 534 368 q 516 389 439 389 q 404 389 394 382 q 383 376 383 342 l 383 124 q 383 98 390 89 q 396 80 422 80 q 522 80 536 100 q 551 120 551 252 z m 302 124 l 302 342 q 302 375 291 382 q 280 389 246 389 q 166 389 148 370 q 126 347 126 250 q 126 127 144 104 q 163 80 263 80 q 288 80 295 89 q 302 98 302 124 z"},"H":{"x_min":0,"x_max":612,"ha":612,"o":"m 560 150 q 560 124 554 112 q 549 101 529 101 l 478 101 q 460 101 456 96 q 451 90 451 64 l 451 -52 q 451 -175 420 -221 q 386 -271 295 -271 l 209 -271 q 147 -271 99 -228 q 46 -181 46 -107 l 46 31 q 46 98 96 143 q 146 188 208 188 l 338 188 q 362 188 366 196 q 371 204 371 231 q 371 259 369 265 q 363 283 337 283 l 180 283 q 126 283 86 327 q 46 371 46 426 l 46 575 q 46 642 104 692 q 157 738 214 738 l 295 738 q 365 738 400 712 q 451 674 451 571 l 451 390 q 451 373 457 370 q 463 366 476 366 l 522 366 q 547 366 555 352 q 560 343 560 318 q 560 293 554 286 q 548 278 524 278 l 475 278 q 460 278 456 268 q 451 258 451 238 l 451 228 q 451 206 456 198 q 461 189 480 189 l 528 189 q 547 189 554 180 q 560 172 560 150 z m 371 403 l 371 565 q 371 618 337 640 q 310 658 258 658 q 192 658 161 624 q 126 586 126 498 q 126 406 163 381 q 189 363 285 363 l 304 363 q 340 363 356 370 q 371 377 371 403 z m 371 -82 l 371 69 q 371 93 355 100 q 339 106 306 106 l 285 106 q 192 106 165 86 q 128 59 128 -33 q 128 -123 149 -153 q 175 -191 257 -191 q 307 -191 331 -176 q 371 -151 371 -82 z"},"4":{"x_min":0,"x_max":541,"ha":541,"o":"m 478 -102 q 478 -185 426 -233 q 369 -285 262 -285 q 159 -285 99 -224 q 47 -172 47 -106 q 47 -84 57 -55 q 71 -16 95 8 q 114 27 124 33 q 133 39 141 39 q 150 39 157 32 q 175 17 175 3 q 175 0 144 -51 q 129 -76 129 -102 q 129 -147 156 -170 q 190 -199 265 -199 q 349 -199 374 -164 q 398 -130 398 -12 l 398 353 q 393 350 378 344 q 363 338 356 337 q 313 327 296 320 q 280 312 280 307 q 280 303 284 296 q 289 290 289 288 q 293 274 294 260 q 295 245 295 213 q 295 180 288 162 q 280 145 261 128 q 237 106 189 106 q 180 106 170 106 q 160 107 142 114 q 104 129 79 162 q 54 195 54 231 q 54 263 60 274 q 65 284 85 284 q 105 284 127 234 q 149 183 181 183 q 224 183 224 225 q 224 264 193 307 q 134 388 135 390 q 139 397 148 403 q 158 409 174 409 q 183 409 233 399 q 258 394 273 394 q 290 394 302 398 q 326 406 359 428 q 421 470 423 470 q 450 470 464 460 q 478 449 478 418 z"},"D":{"x_min":0,"x_max":464,"ha":464,"o":"m 416 230 q 416 139 375 76 q 325 -2 229 -2 q 134 -2 87 54 q 48 101 48 174 l 48 704 q 48 722 59 732 q 70 741 87 741 q 104 741 116 732 q 129 722 129 705 l 129 525 q 129 469 135 469 q 138 469 146 477 q 158 488 198 528 q 238 568 251 579 q 256 582 259 583 q 270 588 278 588 q 293 588 305 572 q 317 557 317 543 q 317 534 312 524 q 306 515 294 503 q 289 497 266 477 q 263 475 257 469 q 291 455 318 442 q 344 430 361 412 q 394 377 407 322 q 416 283 416 230 z m 333 238 q 333 296 308 338 q 277 390 219 390 q 175 390 152 346 q 130 302 130 241 q 130 174 150 132 q 175 79 228 79 q 278 79 307 131 q 333 177 333 238 z"},"0":{"x_min":0,"x_max":499,"ha":499,"o":"m 449 246 q 449 116 382 52 q 327 -1 239 -1 q 138 -1 86 77 q 44 140 44 232 l 44 663 q 44 689 67 721 q 95 760 131 760 q 152 751 176 744 q 201 737 228 737 q 258 737 283 748 q 308 760 330 760 q 358 760 372 750 q 387 741 387 726 q 387 712 373 703 q 350 687 319 674 q 278 657 246 657 q 219 657 204 658 q 189 659 180 662 q 172 665 166 667 q 159 669 151 669 q 139 669 132 662 q 124 656 124 639 l 124 432 q 156 449 189 461 q 222 473 255 473 q 339 473 388 427 q 449 370 449 246 z m 367 246 q 367 311 336 350 q 305 388 243 388 q 193 388 161 361 q 124 330 124 267 q 124 183 156 130 q 187 78 240 78 q 297 78 330 118 q 367 162 367 246 z"},"F":{"x_min":0,"x_max":726,"ha":726,"o":"m 676 -77 q 676 -140 638 -176 q 606 -207 559 -207 q 512 -207 459 -129 q 407 -33 355 63 q 351 67 310 31 q 280 4 260 -16 q 269 -28 278 -43 q 298 -74 298 -92 q 298 -118 273 -156 q 243 -201 207 -201 q 154 -201 117 -173 q 85 -149 71 -110 q 68 -98 68 -91 q 68 -67 87 -57 q 99 -52 105 -52 q 115 -52 122 -61 q 124 -64 134 -81 q 141 -96 157 -110 q 173 -124 189 -124 q 196 -124 200 -122 q 213 -116 213 -106 q 213 -93 185 -62 q 157 -31 157 -18 q 157 6 237 75 q 317 144 317 145 q 318 153 287 216 q 266 257 245 298 q 224 343 212 360 q 191 389 166 389 q 150 389 142 383 q 135 377 135 354 l 135 338 q 135 313 126 304 q 116 294 96 294 q 55 294 55 350 q 55 416 95 445 q 129 470 190 470 q 228 470 266 420 q 288 391 382 205 q 492 297 515 318 q 545 345 549 360 q 553 376 544 384 q 536 392 522 389 q 510 388 493 374 q 481 365 476 361 q 470 357 461 357 q 451 357 439 364 q 427 371 422 381 q 416 391 416 399 q 416 411 427 424 q 432 430 442 438 q 474 460 490 466 q 507 471 535 471 l 550 471 q 595 471 624 446 q 654 422 654 383 q 654 333 572 259 q 496 192 420 125 q 482 -2 487 -11 q 540 -110 562 -110 q 584 -110 593 -95 q 599 -85 599 -67 q 599 -47 595 -36 q 589 -24 586 -17 q 583 -10 579 0 q 575 11 575 17 q 575 33 590 45 q 599 53 612 53 q 636 53 649 30 q 668 -4 672 -23 q 676 -42 676 -77 z"},"+":{"x_min":0,"x_max":719,"ha":719,"o":"m 662 267 q 663 260 663 253 q 663 246 663 239 q 663 203 656 172 q 650 140 642 121 q 612 55 577 28 q 542 0 494 0 q 473 0 462 10 q 450 21 450 36 q 450 51 462 62 q 468 67 502 70 q 536 72 568 129 q 588 167 588 241 q 588 257 587 267 q 586 277 583 296 q 574 345 556 365 q 531 392 471 392 q 452 392 435 380 q 418 369 409 363 q 421 321 424 306 q 432 268 432 233 q 432 129 378 64 q 323 -2 236 -2 q 168 -2 108 55 q 37 123 37 227 q 37 329 93 400 q 149 470 224 470 q 291 470 324 445 q 340 433 352 433 q 383 446 416 460 q 449 473 479 473 q 493 473 510 470 q 569 460 605 421 q 653 370 662 267 z m 353 238 q 353 314 320 352 q 286 389 229 389 q 179 389 148 342 q 118 295 118 232 q 118 164 157 118 q 192 76 233 76 q 286 76 315 106 q 353 146 353 238 z"},"G":{"x_min":0,"x_max":552,"ha":552,"o":"m 506 185 q 506 109 447 54 q 388 -1 296 -1 q 180 -1 116 45 q 47 95 47 191 q 47 227 57 242 q 67 258 92 258 q 113 258 120 234 q 124 219 124 179 q 124 136 167 108 q 210 80 290 80 q 362 80 397 117 q 421 142 421 175 q 421 237 321 298 q 282 320 243 343 q 236 348 231 356 q 226 365 226 373 q 226 382 230 392 q 235 401 244 406 q 252 412 260 412 q 265 412 269 411 q 273 410 279 408 q 310 395 336 382 q 351 374 364 366 q 377 358 389 358 q 410 358 419 385 q 423 398 416 409 q 408 420 398 427 q 396 428 322 470 q 272 498 235 521 q 223 529 223 546 q 223 554 229 565 q 241 586 261 586 q 270 586 278 581 l 353 540 q 358 537 364 536 q 369 535 373 535 q 386 535 392 544 q 399 552 399 558 q 399 583 371 607 q 343 631 325 642 q 307 654 282 664 q 258 673 251 683 q 244 693 247 708 q 250 725 260 732 q 271 740 284 740 q 293 740 299 738 q 305 736 308 735 q 364 714 415 668 q 474 615 474 569 q 474 534 462 516 q 451 499 451 484 q 451 474 474 448 q 496 423 496 386 q 496 369 471 330 q 458 310 458 298 q 458 284 482 250 q 506 216 506 185 z"},"1":{"x_min":0,"x_max":550,"ha":550,"o":"m 498 38 q 506 25 506 14 q 506 1 493 1 q 464 1 414 4 q 281 12 275 12 q 236 12 178 8 q 119 4 53 0 q 39 0 39 12 q 39 19 44 32 q 49 45 87 64 q 125 84 125 102 q 103 129 87 172 q 68 222 68 290 q 68 356 114 407 q 171 470 271 470 q 364 470 412 400 q 452 342 452 253 q 452 198 440 162 q 427 130 414 99 q 414 91 450 74 q 487 58 498 38 z m 372 257 q 372 314 344 352 q 317 389 272 389 q 219 389 187 358 q 151 323 151 257 q 151 200 190 144 q 229 87 274 87 q 320 87 346 138 q 372 188 372 257 z"},"5":{"x_min":0,"x_max":700,"ha":700,"o":"m 647 261 q 647 187 625 127 q 592 37 517 1 q 511 -1 503 -1 q 490 -1 480 4 q 469 8 466 19 q 463 30 463 33 q 463 50 493 70 q 531 99 548 143 q 566 187 566 253 q 566 311 538 350 q 511 389 463 389 q 440 389 416 364 q 393 338 393 301 l 393 249 l 393 236 q 393 222 390 212 q 388 203 378 196 q 367 189 355 189 q 343 189 332 196 q 322 203 317 216 q 312 229 312 249 l 312 300 q 312 339 288 364 q 265 390 242 390 q 187 390 156 345 q 124 300 124 235 q 124 162 154 115 q 169 91 198 70 q 214 60 220 52 q 227 43 227 34 q 227 25 224 18 q 222 10 210 4 q 199 -1 187 -1 q 180 -1 174 1 q 95 29 63 128 q 43 190 43 273 q 43 350 70 418 q 98 487 158 543 q 196 578 249 603 q 301 621 353 640 q 406 666 441 713 q 454 730 465 730 q 474 730 489 723 q 496 720 496 709 q 496 697 490 682 q 484 667 477 657 q 454 625 431 594 q 398 560 323 528 q 293 515 264 503 q 232 487 232 471 q 281 471 308 448 q 335 425 350 425 q 370 425 393 439 q 446 471 489 471 q 578 471 617 402 q 647 349 647 261 z"}}}
